<<<<<<< HEAD
<svg width="40" height="40" viewBox="0 0 40 40" fill="none" xmlns="http://www.w3.org/2000/svg">
<path d="M10.1507 24.9987C9.50175 23.532 9.1668 21.9458 9.16732 20.342C9.16732 14.167 14.0173 9.16536 20.0007 9.16536C25.984 9.16536 30.834 14.1687 30.834 20.342C30.8345 21.9458 30.4996 23.532 29.8507 24.9987M20.0007 3.33203V4.9987M36.6673 19.9987H35.0007M5.00065 19.9987H3.33398M31.784 8.2137L30.6057 9.39203M9.39565 9.3937L8.21732 8.21536M24.1957 32.177C25.879 31.632 26.5557 30.0904 26.7457 28.5404C26.8023 28.077 26.4206 27.692 25.954 27.692H14.129C14.015 27.6902 13.902 27.7126 13.7973 27.7578C13.6927 27.8029 13.5988 27.8697 13.5219 27.9539C13.445 28.038 13.3869 28.1375 13.3513 28.2458C13.3158 28.3541 13.3036 28.4687 13.3157 28.582C13.5023 30.1287 13.9723 31.2587 15.7557 32.1754M24.1957 32.177L15.7557 32.1754M24.1957 32.177C23.994 35.4187 23.0573 36.702 20.0123 36.6654C16.7557 36.7254 16.0057 35.137 15.7557 32.1754" stroke="#253017" stroke-width="1.5" stroke-linecap="round" stroke-linejoin="round"/>
=======
<svg width="24" height="24" viewBox="0 0 24 24" fill="none" xmlns="http://www.w3.org/2000/svg">
<path d="M6.09 14.998C5.70066 14.118 5.49969 13.1663 5.5 12.204C5.5 8.49905 8.41 5.49805 12 5.49805C15.59 5.49805 18.5 8.50005 18.5 12.204C18.5003 13.1663 18.2993 14.118 17.91 14.998M12 1.99805V2.99805M22 11.998H21M3 11.998H2M19.07 4.92705L18.363 5.63405M5.637 5.63505L4.93 4.92805M14.517 19.305C15.527 18.978 15.933 18.053 16.047 17.123C16.081 16.845 15.852 16.614 15.572 16.614H8.477C8.40862 16.613 8.3408 16.6264 8.278 16.6535C8.21521 16.6806 8.15888 16.7207 8.11275 16.7712C8.06662 16.8216 8.03173 16.8813 8.0104 16.9463C7.98906 17.0113 7.98177 17.08 7.989 17.148C8.101 18.076 8.383 18.754 9.453 19.304M14.517 19.305L9.453 19.304M14.517 19.305C14.396 21.25 13.834 22.02 12.007 21.998C10.053 22.034 9.603 21.081 9.453 19.304" stroke="#253017" stroke-width="1.5" stroke-linecap="round" stroke-linejoin="round"/>
>>>>>>> 8a7feaf (temp)
</svg>
