<svg width="20" height="18" viewBox="0 0 20 18" fill="none" xmlns="http://www.w3.org/2000/svg">
<path d="M14.6512 17.2093H5.34884C1.95349 17.2093 0 15.2558 0 11.8605V5.34884C0 1.95349 1.95349 0 5.34884 0H14.6512C18.0465 0 20 1.95349 20 5.34884V11.8605C20 15.2558 18.0465 17.2093 14.6512 17.2093ZM5.34884 1.39535C2.68837 1.39535 1.39535 2.68837 1.39535 5.34884V11.8605C1.39535 14.5209 2.68837 15.814 5.34884 15.814H14.6512C17.3116 15.814 18.6047 14.5209 18.6047 11.8605V5.34884C18.6047 2.68837 17.3116 1.39535 14.6512 1.39535H5.34884Z" fill="#253017"/>
<path d="M9.99979 9.41442C9.2184 9.41442 8.4277 9.17257 7.82305 8.67954L4.91142 6.35396C4.61375 6.1121 4.55794 5.67489 4.7998 5.37721C5.04166 5.07954 5.47887 5.02373 5.77654 5.26559L8.68816 7.59117C9.39514 8.15861 10.5951 8.15861 11.3021 7.59117L14.2137 5.26559C14.5114 5.02373 14.9579 5.07024 15.1905 5.37721C15.4324 5.67489 15.3858 6.1214 15.0789 6.35396L12.1672 8.67954C11.5719 9.17257 10.7812 9.41442 9.99979 9.41442Z" fill="#253017"/>
</svg>
