<svg width="18" height="19" viewBox="0 0 18 19" fill="none" xmlns="http://www.w3.org/2000/svg">
<path d="M7.56362 4.82219C7.38809 4.82219 7.21255 4.75755 7.07398 4.61898L4.12706 1.67207L1.18015 4.61898C0.912247 4.88688 0.468827 4.88688 0.200926 4.61898C-0.0669753 4.35108 -0.0669753 3.90766 0.200926 3.63976L3.63748 0.203208C3.76681 0.0738767 3.9423 0 4.12706 0C4.31182 0 4.48737 0.0738767 4.6167 0.203208L8.0532 3.63976C8.3211 3.90766 8.3211 4.35108 8.0532 4.61898C7.91463 4.75755 7.73914 4.82219 7.56362 4.82219Z" fill="#253017"/>
<path d="M4.12669 18.014C3.74793 18.014 3.43384 17.6999 3.43384 17.3212V0.692848C3.43384 0.314091 3.74793 0 4.12669 0C4.50544 0 4.81953 0.314091 4.81953 0.692848V17.3212C4.81953 17.6999 4.50544 18.014 4.12669 18.014Z" fill="#253017"/>
<path d="M13.8729 18.0133C13.6882 18.0133 13.5126 17.9394 13.3833 17.8101L9.94678 14.3735C9.67887 14.1056 9.67887 13.6622 9.94678 13.3943C10.2147 13.1264 10.6581 13.1264 10.926 13.3943L13.8729 16.3412L16.8198 13.3943C17.0877 13.1264 17.5311 13.1264 17.799 13.3943C18.0669 13.6622 18.0669 14.1056 17.799 14.3735L14.3625 17.8101C14.2332 17.9394 14.0484 18.0133 13.8729 18.0133Z" fill="#253017"/>
<path d="M13.8637 18.014C13.485 18.014 13.1709 17.6999 13.1709 17.3212V0.692848C13.1709 0.314091 13.485 0 13.8637 0C14.2425 0 14.5566 0.314091 14.5566 0.692848V17.3212C14.5566 17.6999 14.2517 18.014 13.8637 18.014Z" fill="#253017"/>
</svg>
